<svg width="200" height="200" viewBox="0 0 200 200" fill="none" xmlns="http://www.w3.org/2000/svg">
<rect width="200" height="200" rx="44" fill="white"/>
<mask id="path-2-outside-1_4_8" maskUnits="userSpaceOnUse" x="48" y="37" width="98" height="126" fill="black">
<rect fill="white" x="48" y="37" width="98" height="126"/>
<path d="M64.7898 147L80.2443 53.9091H102.744L90.3807 128.727H129.108L126.017 147H64.7898Z"/>
</mask>
<path d="M64.7898 147L49.0058 144.38C48.2358 149.018 49.5447 153.76 52.5847 157.346C55.6248 160.932 60.0883 163 64.7898 163V147ZM80.2443 53.9091V37.9091C72.4191 37.9091 65.7419 43.5691 64.4604 51.2887L80.2443 53.9091ZM102.744 53.9091L118.53 56.5177C119.296 51.8812 117.986 47.1423 114.946 43.5587C111.905 39.975 107.444 37.9091 102.744 37.9091V53.9091ZM90.3807 128.727L74.5948 126.119C73.8286 130.755 75.1395 135.494 78.1795 139.078C81.2195 142.661 85.6813 144.727 90.3807 144.727V128.727ZM129.108 128.727L144.884 131.396C145.669 126.752 144.369 121.998 141.329 118.4C138.289 114.803 133.818 112.727 129.108 112.727V128.727ZM126.017 147V163C133.824 163 140.491 157.366 141.793 149.669L126.017 147ZM80.5737 149.62L96.0283 56.5295L64.4604 51.2887L49.0058 144.38L80.5737 149.62ZM80.2443 69.9091H102.744V37.9091H80.2443V69.9091ZM86.9584 51.3005L74.5948 126.119L106.167 131.336L118.53 56.5177L86.9584 51.3005ZM90.3807 144.727H129.108V112.727H90.3807V144.727ZM113.332 126.059L110.241 144.331L141.793 149.669L144.884 131.396L113.332 126.059ZM126.017 131H64.7898V163H126.017V131Z" fill="black" mask="url(#path-2-outside-1_4_8)"/>
</svg>
